<svg viewBox="0 0 512 512" xmlns="http://www.w3.org/2000/svg">
  <style>
    @keyframes spin {
      from { transform: rotate(0deg); }
      to { transform: rotate(360deg); }
    }
    .gear {
      transform-origin: 256px 256px;
      animation: spin 8s linear infinite;
    }
  </style>
  <g class="gear">
    <g stroke="#f59e0b" fill="none" stroke-width="10" stroke-linejoin="round">
      <path d="M256,61 L238,68 L235,106 L277,106 L274,68 Z"/>
      <path d="M256,61 L238,68 L235,106 L277,106 L274,68 Z" transform="rotate(30,256,256)"/>
      <path d="M256,61 L238,68 L235,106 L277,106 L274,68 Z" transform="rotate(60,256,256)"/>
      <path d="M256,61 L238,68 L235,106 L277,106 L274,68 Z" transform="rotate(90,256,256)"/>
      <path d="M256,61 L238,68 L235,106 L277,106 L274,68 Z" transform="rotate(120,256,256)"/>
      <path d="M256,61 L238,68 L235,106 L277,106 L274,68 Z" transform="rotate(150,256,256)"/>
      <path d="M256,61 L238,68 L235,106 L277,106 L274,68 Z" transform="rotate(180,256,256)"/>
      <path d="M256,61 L238,68 L235,106 L277,106 L274,68 Z" transform="rotate(210,256,256)"/>
      <path d="M256,61 L238,68 L235,106 L277,106 L274,68 Z" transform="rotate(240,256,256)"/>
      <path d="M256,61 L238,68 L235,106 L277,106 L274,68 Z" transform="rotate(270,256,256)"/>
      <path d="M256,61 L238,68 L235,106 L277,106 L274,68 Z" transform="rotate(300,256,256)"/>
      <path d="M256,61 L238,68 L235,106 L277,106 L274,68 Z" transform="rotate(330,256,256)"/>
    </g>
    <circle cx="256" cy="256" r="106" fill="none" stroke="#f59e0b" stroke-width="9" opacity="0.5"/>
    <circle cx="256" cy="256" r="44" fill="none" stroke="#f59e0b" stroke-width="7" opacity="0.6"/>
    <circle cx="256" cy="256" r="10" fill="#f59e0b"/>
  </g>
</svg>
